<svg width="52" height="43" viewBox="0 0 52 43" fill="none" xmlns="http://www.w3.org/2000/svg">
<path fill-rule="evenodd" clip-rule="evenodd" d="M3.85555 24.4709C3.85555 24.0736 4.28717 23.7514 4.81953 23.7514C5.35182 23.7514 5.78339 24.0736 5.78339 24.4709V27.3491C5.78339 27.7464 5.35182 28.0686 4.81953 28.0686C4.28717 28.0686 3.85555 27.7464 3.85555 27.3491V24.4709ZM7.71118 25.9101C7.71118 25.5127 8.14286 25.1905 8.67521 25.1905C9.20751 25.1905 9.63902 25.5127 9.63902 25.9101V28.7881C9.63902 29.1855 9.20751 29.5079 8.67521 29.5079C8.14286 29.5079 7.71118 29.1855 7.71118 28.7881V25.9101ZM43.8328 29.0522C43.3835 28.8392 42.7879 28.9384 42.5022 29.2737C42.2283 29.5956 42.3383 30.0214 42.7533 30.2439C45.4028 31.5755 46.1044 34.2584 44.3205 36.2362C42.5367 38.2139 38.9425 38.7379 36.2932 37.4062C33.6435 36.0745 32.9419 33.3915 34.7258 31.4138C35.7999 30.2228 37.5971 29.5085 39.5203 29.5079C40.0527 29.5079 40.4842 29.1855 40.4842 28.7881C40.4842 28.3908 40.0527 28.0686 39.5203 28.0686C35.2615 28.0692 31.8096 30.6469 31.8105 33.826C31.8113 37.0051 35.2644 39.582 39.5232 39.5814C43.782 39.5808 47.234 37.0031 47.2331 33.824C47.2326 31.9104 45.9583 30.122 43.8328 29.0522ZM44.3399 25.982C47.4013 27.0289 49.6992 29.02 50.6332 31.4351C52.4041 36.0148 48.8665 40.7991 42.7314 42.121C36.5962 43.4431 30.1872 40.8022 28.4161 36.2226L22.6606 38.7617C22.6455 38.7683 22.6298 38.7726 22.6142 38.777C22.6038 38.7799 22.5934 38.7828 22.5834 38.7863C22.5569 38.7961 22.5295 38.8046 22.5016 38.8121C22.2893 38.8783 22.0505 38.8783 21.8383 38.8121C21.8108 38.8046 21.7836 38.7961 21.7574 38.7863C21.7307 38.7791 21.7047 38.7709 21.6793 38.7617L0.473241 29.4078C0.179869 29.2782 -0.000115005 29.0427 0 28.7881V10.0802C0 10.0677 0.00351768 10.0559 0.0070603 10.0441C0.00966461 10.0354 0.0122824 10.0267 0.0135261 10.0176C0.0146907 10.0088 0.0167885 10.0003 0.0188735 9.99184C0.0219407 9.97938 0.0249802 9.96703 0.0249802 9.9543C0.0427656 9.87158 0.0795452 9.79201 0.133937 9.71892V9.71389C0.135571 9.71171 0.138651 9.70994 0.141632 9.70822C0.145585 9.70595 0.149363 9.70377 0.149363 9.70088C0.20669 9.63385 0.278695 9.57459 0.362442 9.52542C0.366201 9.52316 0.36993 9.52089 0.373641 9.51863C0.388849 9.50938 0.403763 9.50031 0.419309 9.49215C0.427594 9.48787 0.434975 9.48302 0.442307 9.47821C0.45204 9.47182 0.461686 9.46549 0.473241 9.46061L21.6793 0.106625C21.9818 -0.0269965 22.3579 -0.0269965 22.6606 0.106625L43.8667 9.46061C44.16 9.5901 44.34 9.82561 44.3399 10.0802V25.982ZM27.1823 3.77262L22.17 1.56137L2.8589 10.0802L7.87225 12.2912L16.8607 8.32584C17.3193 8.1236 17.9108 8.23706 18.1818 8.57955C18.4528 8.9219 18.3005 9.36327 17.842 9.5657L9.76728 13.1274L14.7797 15.3385L34.0907 6.82288L29.0783 4.61167L20.7318 8.29064C20.2732 8.49288 19.6817 8.37924 19.4108 8.03708C19.1398 7.69473 19.2919 7.25302 19.7505 7.05097L27.1823 3.77262ZM13.8157 21.3899V16.5855L8.83605 14.3888V19.1932L13.8157 21.3899ZM27.9534 33.8249C27.9498 33.0743 28.0778 32.3266 28.3343 31.6007C29.9568 27.008 36.2598 24.2671 42.412 25.4783V10.4903L35.9867 7.65605L16.6757 16.1747L22.17 18.5988L39.6225 10.8997C40.0808 10.6975 40.6722 10.8108 40.9432 11.1529C41.2141 11.4951 41.0621 11.9364 40.6039 12.1388L23.1338 19.8451V31.6663C23.1338 32.0638 22.7023 32.386 22.17 32.386C21.6376 32.386 21.2059 32.0638 21.2059 31.6663V19.8451L15.7435 17.4353V22.6512C15.7435 23.0486 15.312 23.3707 14.7797 23.3707C14.607 23.3705 14.4376 23.3361 14.289 23.2707L7.38157 20.2236C7.08791 20.0938 6.90792 19.858 6.90838 19.6033V13.5382L1.92773 11.3416V28.3782L21.2059 36.8817V34.5446C21.2059 34.1471 21.6376 33.8249 22.17 33.8249C22.7023 33.8249 23.1338 34.1471 23.1338 34.5446V36.8817L28.017 34.7266C27.9749 34.427 27.9536 34.1262 27.9534 33.8249ZM29.8812 33.8249C29.8812 37.7989 34.1969 41.0205 39.5203 41.0205C44.8416 41.016 49.1537 37.7971 49.1594 33.8249C49.1594 29.851 44.8439 26.6295 39.5203 26.6295C34.1969 26.6295 29.8812 29.851 29.8812 33.8249ZM41.7307 31.8773C42.1041 31.6078 42.6965 31.6078 43.07 31.8773C43.4529 32.1532 43.4635 32.6089 43.0936 32.8946L38.756 36.1327C38.3796 36.4135 37.7694 36.4135 37.3931 36.1327L35.9471 35.0534C35.5863 34.7744 35.5863 34.3323 35.9471 34.0535C36.3171 33.7676 36.9272 33.7596 37.3101 34.0359L38.0744 34.6065L41.7307 31.8773Z" fill="#00A2FF"/>
</svg>
