<svg width="37" height="42" viewBox="0 0 37 42" fill="none" xmlns="http://www.w3.org/2000/svg">
<path fill-rule="evenodd" clip-rule="evenodd" d="M31.9514 7.34636C31.1207 7.34636 30.3402 7.51374 29.6693 7.8055V7.34636C29.6693 5.464 27.6221 3.93315 25.1046 3.93315C24.2741 3.93315 23.4935 4.10039 22.8225 4.39216V3.93315C22.8225 2.05065 20.7753 0.519806 18.2581 0.519806C15.7406 0.519806 13.6934 2.05065 13.6934 3.93315V4.39229C13.0225 4.10039 12.242 3.93315 11.4113 3.93315C8.89396 3.93315 6.84679 5.464 6.84679 7.34636V16.7348C5.89274 16.1989 4.70834 15.8799 3.4234 15.8799C1.53586 15.8799 0 17.0285 0 18.4398V26.1385C0 30.2056 2.11796 34.0302 5.96353 36.906L9.7383 39.7304C11.2264 40.8415 13.2827 41.4798 15.3869 41.4798H23.9636C30.8834 41.4798 36.5159 37.2695 36.5159 32.0931V10.7598C36.5161 8.87739 34.4689 7.34636 31.9514 7.34636ZM34.2338 32.093C34.2338 36.3271 29.6258 39.773 23.9636 39.773H15.3869C13.8852 39.773 12.4131 39.3172 11.3518 38.5221L7.57703 35.6992C4.16284 33.1444 2.28232 29.7497 2.28232 26.1385V18.4398C2.28232 17.9688 2.79582 17.5863 3.42356 17.5863C5.31097 17.5863 6.84679 18.7349 6.84679 20.1464V25.2662C6.84679 25.7373 7.35814 26.1197 7.98804 26.1197C8.61793 26.1197 9.12911 25.7373 9.12911 25.2662V7.34636C9.12911 6.40621 10.1515 5.63978 11.4113 5.63978C12.6711 5.63978 13.6934 6.40621 13.6934 7.34636V18.4398C13.6934 18.9108 14.2048 19.2929 14.8347 19.2929C15.4646 19.2929 15.9757 18.9108 15.9757 18.4398V3.93315C15.9757 2.99287 16.9982 2.22657 18.2581 2.22657C19.5179 2.22657 20.5402 2.99287 20.5402 3.93315V18.4398C20.5402 18.9108 21.0515 19.2929 21.6814 19.2929C22.3113 19.2929 22.8225 18.9108 22.8225 18.4398V7.34636C22.8225 6.40621 23.8449 5.63978 25.1046 5.63978C26.3646 5.63978 27.387 6.40621 27.387 7.34636V18.4398C27.387 18.9108 27.8981 19.2929 28.528 19.2929C29.1579 19.2929 29.6693 18.9108 29.6693 18.4398V10.7598C29.6693 9.81929 30.6916 9.05317 31.9514 9.05317C33.2112 9.05317 34.2338 9.81943 34.2338 10.7598V32.093Z" fill="#FF9800"/>
</svg>
