<svg width="103" height="103" viewBox="0 0 103 103" fill="none" xmlns="http://www.w3.org/2000/svg">
<path d="M51.5 3.18745C78.1823 3.18745 99.8124 24.8176 99.8124 51.5C99.8124 78.1821 78.1823 99.8123 51.5 99.8123C24.8177 99.8123 3.18745 78.1821 3.18745 51.5C3.18745 24.8176 24.8177 3.18745 51.5 3.18745Z" fill="#F3B622" fill-opacity="0.01" stroke="#F3B622" stroke-width="3"/>
<path fill-rule="evenodd" clip-rule="evenodd" d="M75.435 59.5263C74.4694 59.4556 72.4767 60.5121 71.9325 60.7837C69.9911 61.7394 67.2896 63.2384 65.5127 64.4356C65.3894 64.516 65.2251 64.6268 65.1019 64.7073C64.3007 65.2102 63.4584 65.5424 62.5236 65.7435C57.3673 66.82 49.8586 66.9306 49.8586 66.9306L49.417 66.9507C49.0885 66.9708 48.7906 66.7395 48.7495 66.4277C48.698 66.0855 48.9548 65.7635 49.3247 65.7333L60.4899 64.6972C61.7224 64.5664 62.6982 63.4397 62.5648 62.1721C62.4311 60.9044 61.2397 59.9788 60.0071 60.1095L50.0745 59.9891C49.3966 59.9788 48.3181 59.8181 47.6709 59.6269C41.2717 57.7958 37.656 59.5062 35.7354 60.311C35.3038 59.6166 34.4924 59.1642 33.5886 59.2242L29.3053 59.5062C27.8776 59.5965 26.8093 60.7635 26.9018 62.1116L27.5899 71.4275C27.6927 72.7757 28.9252 73.7917 30.353 73.6911L34.6363 73.4093C35.5403 73.3491 36.2798 72.8058 36.598 72.0612L55.4157 72.856C57.5111 73.0774 59.4729 72.8259 61.3219 71.8802L61.856 71.6087L76.0821 63.4598C76.7805 63.0573 77.2736 62.3631 77.3045 61.5987C77.3352 60.6631 76.7908 59.6269 75.435 59.5263ZM31.9246 71.4879C31.1234 71.4879 30.466 70.8743 30.466 70.1096C30.466 69.3448 31.1234 68.7315 31.9246 68.7315C32.7258 68.7315 33.3832 69.3448 33.3832 70.1096C33.3832 70.8743 32.7258 71.4879 31.9246 71.4879ZM64.6602 60.9548C66.1598 60.15 69.0975 58.7616 70.6999 58.1478C71.501 57.836 72.292 57.8563 73.0212 58.3391C72.4461 58.5402 71.912 58.7919 71.4086 59.0333C69.724 59.8582 66.7555 61.4377 65.3073 62.4338C65.1635 62.5343 65.0094 62.6349 64.8656 62.7354C64.8861 62.4839 64.8861 62.2225 64.8553 61.961C64.8246 61.6288 64.7423 61.3169 64.6396 61.0152C64.6396 60.995 64.6499 60.9749 64.6602 60.9548ZM69.1488 57.2122C67.988 57.7154 65.7592 58.48 64.7012 59.0534L63.9822 59.4357C63.9104 59.4759 63.8487 59.5162 63.787 59.5664C63.4685 59.1941 63.0886 58.8824 62.6673 58.6309C63.6536 58.1178 65.8517 57.4236 66.848 57.0414C67.6492 56.7294 68.4196 56.7496 69.1488 57.2122ZM38.7038 50.8543C38.7038 50.2707 39.1866 49.7979 39.7823 49.7979H66.6632C67.2588 49.7979 67.7415 50.2707 67.7415 50.8543C67.7415 51.4377 67.2588 51.9106 66.6632 51.9106H39.7721C39.1866 51.9106 38.7038 51.4377 38.7038 50.8543ZM38.7038 54.6772C38.7038 54.0935 39.1866 53.6205 39.7823 53.6205H66.6632C67.2588 53.6205 67.7415 54.0935 67.7415 54.6772C67.7415 55.2606 67.2588 55.7335 66.6632 55.7335H39.7721C39.1866 55.7335 38.7038 55.2606 38.7038 54.6772ZM59.7195 39.3152C59.7195 38.4901 60.4076 37.816 61.25 37.816C62.0923 37.816 62.7804 38.4901 62.7804 39.3152C62.7804 40.14 62.0923 40.8142 61.25 40.8142C60.3975 40.8142 59.7195 40.14 59.7195 39.3152ZM43.665 39.3152C43.665 38.4901 44.3531 37.816 45.1954 37.816C46.0377 37.816 46.7259 38.4901 46.7259 39.3152C46.7259 40.14 46.0377 40.8142 45.1954 40.8142C44.3428 40.8142 43.665 40.14 43.665 39.3152ZM41.1998 48.128H65.2353C66.6221 48.128 67.7519 47.0214 67.7519 45.6631V32.9669C67.7519 31.6088 66.6221 30.5021 65.2353 30.5021H41.1998C39.813 30.5021 38.6833 31.6088 38.6833 32.9669V45.6631C38.6833 47.0214 39.813 48.128 41.1998 48.128ZM40.8299 35.5224C40.9738 35.5525 41.1279 35.5625 41.282 35.5625C42.6892 35.5625 43.8294 34.4459 43.8294 33.0676C43.8294 32.9067 43.8088 32.7558 43.7882 32.6049H62.5031C62.4518 32.7962 62.4208 33.0073 62.4208 33.2188C62.4208 34.5968 63.561 35.7134 64.9683 35.7134C65.1839 35.7134 65.3997 35.6832 65.5948 35.633V43.289C65.3894 43.2387 65.1839 43.2086 64.9683 43.2086C63.561 43.2086 62.4208 44.3252 62.4208 45.7032C62.4208 45.8039 62.4311 45.9147 62.4414 46.0151H43.7882C43.8192 45.8642 43.8294 45.7135 43.8294 45.5524C43.8294 44.1743 42.6892 43.0574 41.282 43.0574C41.1279 43.0574 40.9841 43.0677 40.8299 43.0978V35.5224ZM53.2176 44.7276C56.2683 44.7276 58.7334 42.303 58.7334 39.3252C58.7334 36.3474 56.258 33.9229 53.2176 33.9229C50.1669 33.9229 47.7018 36.3474 47.7018 39.3252C47.7018 42.303 50.1669 44.7276 53.2176 44.7276ZM51.2351 40.4619L52.2623 40.4417C52.3651 40.4417 52.4575 40.5122 52.4678 40.6129C52.4883 40.8746 52.5705 41.0655 52.6937 41.1863C52.8479 41.3372 53.0533 41.4177 53.2998 41.4177C53.5052 41.4177 53.6593 41.3575 53.7723 41.2366C53.8748 41.1158 53.9365 40.9649 53.9365 40.7739C53.9365 40.5523 53.8851 40.3815 53.7723 40.2608C53.6593 40.14 53.4641 40.0193 53.1867 39.8984C52.5087 39.6369 52.0158 39.3654 51.7077 39.0938C51.3995 38.8221 51.2455 38.4197 51.2455 37.8965C51.2455 37.4236 51.4098 37.0315 51.7385 36.7196C52.0363 36.438 52.4266 36.2668 52.8991 36.1964V35.4519C52.8991 35.3615 52.9813 35.2808 53.0737 35.2808H53.7003C53.7928 35.2808 53.8748 35.3615 53.8748 35.4519V36.2164C54.327 36.3071 54.6863 36.5084 54.9637 36.8201C55.2307 37.1219 55.3747 37.4941 55.3951 37.9368C55.4053 38.0474 55.3027 38.1381 55.1897 38.1381L54.1522 38.1582C54.0496 38.1582 53.9571 38.0879 53.9468 37.9871C53.9263 37.7658 53.8648 37.5948 53.7723 37.474C53.6489 37.3231 53.4949 37.2526 53.2895 37.2526C53.0841 37.2526 52.9299 37.3132 52.8375 37.4336C52.7348 37.5545 52.6937 37.7154 52.6937 37.9065C52.6937 38.0977 52.7451 38.2589 52.8479 38.3795C52.9505 38.5002 53.1456 38.6209 53.4332 38.7516C54.101 39.0334 54.594 39.3051 54.9021 39.5867C55.2102 39.8683 55.3747 40.2608 55.3747 40.7739C55.3747 41.2668 55.2206 41.6592 54.9021 41.9608C54.6352 42.2125 54.2858 42.3834 53.8648 42.4541V43.168C53.8648 43.2587 53.7825 43.3392 53.69 43.3392H53.0635C52.971 43.3392 52.8888 43.2587 52.8888 43.168V42.474C52.3548 42.4136 51.9131 42.2225 51.5639 41.9106C51.2351 41.6191 51.0605 41.2063 51.0297 40.6631C51.0297 40.5625 51.1324 40.4619 51.2351 40.4619Z" fill="#F3B622"/>
</svg>
