<svg width="103" height="103" viewBox="0 0 103 103" fill="none" xmlns="http://www.w3.org/2000/svg">
<path d="M51.4999 3.18745C78.1821 3.18745 99.8123 24.8176 99.8123 51.5C99.8123 78.1821 78.1822 99.8123 51.4999 99.8123C24.8176 99.8123 3.18745 78.1821 3.18745 51.5C3.18745 24.8176 24.8176 3.18745 51.4999 3.18745Z" fill="#1D8FF7" fill-opacity="0.01" stroke="#1D8FF7" stroke-width="3"/>
<path fill-rule="evenodd" clip-rule="evenodd" d="M54.4925 36.4402C54.4925 34.644 53.0393 33.1882 51.2463 33.1882C49.4535 33.1882 47.9999 34.644 47.9999 36.4402C47.9999 38.236 49.4535 39.6919 51.2463 39.6919C53.0393 39.6919 54.4925 38.236 54.4925 36.4402ZM45.0313 56.5847L44.3993 64.641C44.3178 65.6777 45.0909 66.5841 46.1257 66.6654C47.1004 66.7426 47.9622 66.0581 48.1245 65.1083V56.5846H45.0313V56.5847ZM58.6477 64.4678L57.2857 56.5849H53.9916V59.5965L54.9442 65.1097C55.1214 66.1351 56.0948 66.8212 57.1165 66.6439C58.1393 66.4665 58.8249 65.4923 58.6477 64.4678ZM34.0962 34.7005C36.0925 34.7005 37.7109 36.3217 37.7109 38.3215C37.7109 40.3213 36.0925 41.9428 34.0962 41.9428C32.0999 41.9428 30.4814 40.3213 30.4814 38.3215C30.4814 36.3217 32.0999 34.7005 34.0962 34.7005ZM48.4709 47.1135C48.8872 47.1127 49.2867 47.2778 49.5814 47.5726C49.876 47.8674 50.0416 48.2672 50.0416 48.6842V48.6873C50.0416 49.558 49.3369 50.2636 48.4678 50.2636H47.6958V50.0159C47.5048 48.5209 46.3567 47.3674 44.931 47.1198C45.0493 47.1194 45.9929 47.1177 47.0378 47.116L48.4709 47.1135ZM59.1226 43.1189C58.4372 41.6668 56.958 40.7283 55.3545 40.7283H47.1191C45.5151 40.7283 44.0362 41.6667 43.3508 43.1189L41.3617 47.3343L44.0403 47.0845C44.3437 47.0561 44.6411 47.0696 44.9278 47.119L46.1825 44.46V44.4597L46.1832 44.4583C46.1872 44.4499 46.1912 44.4415 46.1954 44.4333C46.2936 44.2398 46.5117 44.1393 46.7225 44.1898C46.9333 44.2405 47.0818 44.4293 47.0818 44.6466V45.6769L48.1294 45.6745V43.7946C48.1294 43.5701 48.3432 43.407 48.559 43.4665L49.6804 43.7753L51.2482 44.207L52.9834 43.7292L53.9374 43.4665C54.1536 43.4069 54.3671 43.5701 54.3671 43.7946V45.6886H55.3774V44.6502C55.3774 44.4295 55.5282 44.238 55.7421 44.1866C55.9561 44.1353 56.1776 44.2371 56.2775 44.4333L56.2812 44.4409L56.2814 44.4412C56.2845 44.4476 56.2876 44.4539 56.2906 44.4605L56.5934 45.102L57.5416 47.1111H53.9769C53.1078 47.1111 52.4031 47.8168 52.4031 48.6876C52.4031 49.5581 53.1076 50.264 53.9769 50.264H54.6736C54.973 48.5938 56.5046 47.4032 58.2223 47.5633L61.3583 47.856L59.927 44.8234L59.1226 43.1189ZM71.4812 38.9936C71.4812 37.038 69.8986 35.4525 67.9463 35.4525C65.9941 35.4525 64.4114 37.038 64.4114 38.9936C64.4114 40.9494 65.9941 42.5347 67.9463 42.5347C69.8986 42.5347 71.4812 40.9494 71.4812 38.9936ZM77.4695 45.4197C76.7518 45.2775 76.0544 45.7468 75.913 46.4667L73.6273 58.1143H71.9577C72.1187 58.0093 72.2703 57.8882 72.4071 57.7492C72.9079 57.2399 73.1853 56.5519 73.1781 55.8371L73.0885 46.7257C73.0736 45.2317 71.8441 44.0367 70.3536 44.0661L67.8868 44.1148C66.3974 44.1443 65.2169 45.3858 65.2591 46.8772L65.2858 47.8222L68.9133 45.5324L64.7685 49.8786L58.0648 49.2531C57.1832 49.1702 56.4035 49.8193 56.3217 50.7015C56.2744 51.2096 56.47 51.6835 56.8118 52.0105C55.5922 52.0105 46.0454 52.0105 44.8456 52.0105C45.566 51.7835 46.0563 51.0777 45.9835 50.2942C45.8996 49.3919 45.1012 48.7282 44.2009 48.8126L37.3453 49.4523L33.1065 45.0081L36.8162 47.3499L36.8436 46.3833C36.8867 44.8576 35.6789 43.5883 34.1561 43.5582L31.6338 43.5085C30.1088 43.4782 28.8062 44.7014 28.791 46.2281V55.546C28.7821 56.4635 29.1868 57.3498 29.9912 57.8747H28.286L25.9489 45.9633C25.8044 45.2273 25.0916 44.7478 24.3569 44.8926C23.6223 45.0371 23.1437 45.7512 23.2882 46.4871L25.8405 59.4951C25.9041 59.8187 26.0797 60.0961 26.322 60.291V64.1962V68.4169C26.322 68.9171 26.7265 69.3223 27.2258 69.3223C27.725 69.3223 28.1297 68.9172 28.1297 68.4169V65.1016H36.2219L36.2584 65.1967L35.6929 66.6286C35.2936 67.6397 35.7879 68.7836 36.7972 69.1837C37.8067 69.5837 38.9485 69.0883 39.3478 68.0776C44.1251 55.9846 43.8307 56.7451 43.8751 56.5849C44.0509 55.9499 43.903 55.2447 43.4278 54.7271C44.1193 54.7271 49.0213 54.7271 49.7023 54.7271V66.6061C48.9999 66.6061 48.5565 66.6061 47.8475 66.6061C47.0987 66.6061 46.4918 67.2144 46.4918 67.9642C46.4918 68.7144 47.0987 69.3223 47.8475 69.3223C49.311 69.3223 52.8077 69.3223 54.2683 69.3223C55.0171 69.3223 55.624 68.7144 55.624 67.9642C55.624 67.2143 55.017 66.6061 54.2683 66.6061C53.5596 66.6061 53.1161 66.6061 52.4136 66.6061V54.7271C55.5139 54.7271 55.8196 54.7271 58.8699 54.7271C59.0528 54.7271 59.2268 54.6902 59.3859 54.6247C58.5299 55.0479 58.0626 56.0863 58.4478 57.0613L62.8105 68.105C63.2012 69.0947 64.3188 69.5777 65.3047 69.1867C66.2916 68.7957 66.7751 67.6769 66.3844 66.6881L65.8287 65.2812L65.8673 65.1812H73.7804V68.437C73.7804 68.9258 74.1761 69.3222 74.6641 69.3222C75.1522 69.3222 75.5481 68.9258 75.5481 68.437V64.2957V60.4769C75.7847 60.2864 75.9566 60.0151 76.0186 59.6983L78.5146 46.9789C78.6558 46.2592 78.1879 45.5611 77.4695 45.4197ZM28.1297 63.2909V60.5909H34.4854L35.5249 63.2909H28.1297ZM37.2399 62.7129L36.423 60.5909H36.6613C37.4099 60.5909 38.0169 59.9829 38.0169 59.2328C38.0169 58.7191 37.732 58.2723 37.312 58.0416L39.0873 58.0365L37.2399 62.7129ZM41.8902 53.369C41.8902 53.6175 41.9582 53.8499 42.0748 54.0505H36.0529C35.2805 54.0505 34.5634 53.6486 34.1581 52.9898C32.9481 51.0216 30.4788 47.0063 30.4913 47.0306C30.4851 47.0201 30.4748 46.9984 30.4748 46.9984L35.5243 52.2932C35.8635 52.6489 36.3523 52.8405 36.8604 52.7932L42.4488 52.272C42.1107 52.5189 41.8902 52.9176 41.8902 53.369ZM64.8695 62.8524L63.0657 58.2861L64.7787 58.2914C64.3808 58.5202 64.1122 58.9496 64.1122 59.4425C64.1122 60.1759 64.7057 60.7706 65.438 60.7706H65.6709L64.8695 62.8524ZM60.2402 54.4276C60.2382 54.4276 60.2365 54.4276 60.2346 54.4276C59.9564 54.4276 59.6965 54.4862 59.4627 54.5889C59.9139 54.3683 60.2256 53.9058 60.2256 53.369C60.2256 53.3655 60.2251 53.3622 60.2251 53.3585C60.2251 53.3551 60.2256 53.3519 60.2256 53.3482C60.2256 53.0961 60.1545 52.8609 60.0333 52.6595L65.2426 53.1454C65.7438 53.1918 66.2203 53.0011 66.5493 52.6562L71.4884 47.4773C71.4884 47.4773 71.4771 47.4994 71.4709 47.51L67.9101 53.3389C67.4903 54.0259 66.7403 54.4466 65.9361 54.4442C64.069 54.4388 60.786 54.429 60.2402 54.4276ZM73.7804 63.4104H66.549L67.5654 60.7705H73.7804V63.4104Z" fill="#1D8FF7"/>
</svg>
