<svg width="103" height="103" viewBox="0 0 103 103" fill="none" xmlns="http://www.w3.org/2000/svg">
<path d="M51.5 3.18745C78.1821 3.18745 99.8124 24.8176 99.8124 51.5C99.8124 78.1821 78.1822 99.8123 51.5 99.8123C24.8177 99.8123 3.18745 78.1821 3.18745 51.5C3.18745 24.8176 24.8177 3.18745 51.5 3.18745Z" fill="#FF5274" fill-opacity="0.01" stroke="#FF5274" stroke-width="3"/>
<path fill-rule="evenodd" clip-rule="evenodd" d="M73.3866 41.7053C73.375 39.418 71.5053 37.5574 69.2187 37.5574H60.4174C59.1524 37.5574 57.9711 38.1221 57.1767 39.1061L55.2028 41.5513L53.3527 37.8742C53.166 37.5034 52.866 37.2281 52.5162 37.0674V34.5125L54.4946 32.5336L55.0747 33.8997C56.4481 33.3164 57.0886 31.7297 56.5054 30.356C55.9221 28.9823 54.3358 28.3416 52.9621 28.9252L53.8767 31.0788H48.4066C48.2731 31.0788 48.1528 31.1593 48.1017 31.2826C48.0504 31.4058 48.0788 31.5479 48.1731 31.6424L51.0424 34.5122V37.0681C51.0343 37.072 51.0261 37.0754 51.018 37.0788L51.018 37.0788L51.0179 37.0789C51.0078 37.0831 50.9977 37.0874 50.9877 37.0924C50.1187 37.5296 49.7686 38.5889 50.206 39.4579L53.284 45.5753C53.5845 46.1725 54.1946 46.545 54.8574 46.545C55.3863 46.545 55.8913 46.3068 56.2277 45.8901L59.6315 41.6735C59.6564 41.6427 59.698 41.6309 59.7352 41.6442C59.7726 41.6575 59.7973 41.6925 59.7973 41.7322L59.7981 57.8595H64.0251V54.4393H64.0395C63.9504 54.2572 63.8989 54.0534 63.8989 53.8374V51.4354C62.6656 51.1822 61.676 50.1674 61.5153 48.8486C61.3243 47.2791 62.3767 45.8459 63.8989 45.5345V45.1552C63.8989 44.4572 64.4214 43.87 65.1143 43.789L68.3452 43.4121C68.6144 43.3806 68.8846 43.4296 69.1264 43.552V41.7248C69.1264 41.5218 69.2909 41.3568 69.494 41.356C69.6973 41.3555 69.8625 41.5196 69.8635 41.7226V41.7228C69.8667 42.3339 69.8694 42.8027 69.8715 43.1799L69.8717 43.2143L69.8717 43.2163C69.8754 43.8772 69.8775 44.253 69.8786 44.6287C69.8802 45.1218 69.88 45.615 69.8797 46.7532V46.7561V46.7593V46.7629V46.7668V46.773V46.7804C69.8795 47.4544 69.8793 48.3524 69.8793 49.6046L71.8673 49.3626C72.7544 49.2545 73.4202 48.4988 73.4158 47.6049C73.4123 46.8118 73.3907 42.4875 73.3866 41.7053ZM68.1559 32.7425C68.1559 30.7263 66.5216 29.0917 64.5057 29.0917C62.4896 29.0917 60.8553 30.7263 60.8553 32.7425C60.8553 34.7589 62.4896 36.3936 64.5057 36.3936C66.5216 36.3936 68.1559 34.7589 68.1559 32.7425ZM63.8829 72.0952C63.3351 71.3556 62.4835 70.8538 61.5134 70.7789H61.5136V65.2916H64.0258V71.3361C64.0258 71.604 63.9737 71.8594 63.8829 72.0952ZM64.9382 65.2916V71.3361C64.9382 72.5036 65.8845 73.45 67.0518 73.45C68.2193 73.45 69.1654 72.5037 69.1654 71.3361V65.2882L69.147 65.2893C69.1012 65.2922 69.0553 65.2922 67.6736 65.2919H67.6707C67.0593 65.2918 66.1869 65.2916 64.9382 65.2916ZM67.6456 57.8592H67.6444H67.6311C67.0218 57.8593 66.1602 57.8595 64.9382 57.8595V55.169C65.0459 55.1964 65.1581 55.2124 65.2742 55.2124H68.5049C68.7442 55.2124 68.9691 55.1509 69.1652 55.043V57.8629L69.1469 57.8618C69.101 57.8589 69.055 57.859 67.6504 57.8592H67.6492H67.648H67.6468H67.6456ZM63.8992 50.1378C63.2986 49.917 62.8398 49.3762 62.7573 48.6973C62.6565 47.8693 63.1485 47.1068 63.8992 46.8321V50.1378ZM68.5049 54.1583C68.6819 54.1583 68.8256 54.0146 68.8256 53.8374V44.7782C68.8256 44.5861 68.6579 44.4373 68.4678 44.4597L65.237 44.8366C65.0754 44.8555 64.9535 44.9924 64.9535 45.1552V53.8374C64.9535 54.0146 65.0971 54.1583 65.2742 54.1583H68.5049ZM47.4572 59.6669H69.0445C69.2461 59.6669 69.4098 59.8303 69.4093 60.0322V63.1189C69.4093 63.3205 69.2459 63.4841 69.0443 63.4841H59.7061V72.5765H61.2597C62.0633 72.5765 62.7151 73.2281 62.7151 74.0322C62.7151 74.836 62.0635 75.4877 61.2597 75.4877H55.2418C54.4381 75.4877 53.7864 74.836 53.7864 74.0322C53.7864 73.2281 54.4379 72.5765 55.2418 72.5765H56.7953V63.4841H47.4572C47.2554 63.4841 47.0919 63.3205 47.0919 63.1189V60.0322C47.0919 59.8303 47.2554 59.6669 47.4572 59.6669ZM42.5036 38.0652C44.5807 38.0652 46.2644 39.7493 46.2644 41.8266C46.2644 43.9041 44.5807 45.5882 42.5036 45.5882C40.4266 45.5882 38.7428 43.9041 38.7428 41.8266C38.7428 39.7493 40.4266 38.0652 42.5036 38.0652ZM43.9701 60.1795C44.6179 60.3871 45.1319 60.8852 45.3602 61.526L49.2952 72.5707C49.6999 73.707 49.1073 74.9558 47.9716 75.3607C46.8362 75.7654 45.5872 75.1733 45.1822 74.0368L42.1282 65.4655V74.0311C42.1282 74.8349 41.4767 75.4868 40.6728 75.4868C39.869 75.4868 39.2174 74.8351 39.2174 74.0311V65.7425H32.4953V74.0311C32.4953 74.8349 31.8438 75.4868 31.0399 75.4868C30.2361 75.4868 29.5845 74.8351 29.5845 74.0311V64.2937C29.5845 63.4886 30.2373 62.8311 31.0738 62.8311H33.355C33.2826 62.7638 33.2136 62.6918 33.1502 62.6142C32.7382 62.1096 32.5743 61.4468 32.7041 60.8087L35.2097 48.4816C35.5049 47.0293 36.9763 46.1372 38.3991 46.545L42.5547 47.7358C43.9036 48.1224 44.6838 49.5293 44.2973 50.8783L44.2647 50.9923L42.0795 49.2474L45.313 53.8142L51.1426 53.6411C52.15 53.6093 52.9851 54.4015 53.0152 55.4059C53.0449 56.4106 52.2549 57.2492 51.2506 57.2791L44.4462 57.481C44.4282 57.4815 44.41 57.4816 44.3921 57.4816C43.8033 57.4816 43.2493 57.196 42.9074 56.7134L39.1103 51.3507L41.3606 57.8092C41.4958 58.1957 41.7292 58.535 42.0284 58.8006L41.83 59.4935L43.9701 60.1795Z" fill="#FF5274"/>
</svg>
