<svg width="42" height="45" viewBox="0 0 42 45" fill="none" xmlns="http://www.w3.org/2000/svg">
<path fill-rule="evenodd" clip-rule="evenodd" d="M37.6053 3.95973H30.4517C30.063 3.09643 28.9737 2.47279 27.6928 2.47279H24.6676C23.7494 1.54675 22.2949 0.985992 20.7542 0.985992C19.2134 0.985992 17.7589 1.54675 16.8407 2.47279H13.8155C12.5347 2.47279 11.4454 3.09643 11.0566 3.95973H3.90298C1.7509 3.95973 0 5.27296 0 6.88717V41.0862C0 42.7004 1.7509 44.0136 3.90298 44.0136H37.6053C39.7575 44.0136 41.5084 42.7004 41.5084 41.0862V6.88717C41.5084 5.27296 39.7575 3.95973 37.6053 3.95973ZM11.0566 8.32767C11.4454 9.19097 12.5347 9.81461 13.8155 9.81461H27.6928C28.9737 9.81461 30.063 9.19097 30.4517 8.32767H35.6848V39.6458H5.82348V8.32767H11.0566ZM13.8155 3.86686H17.3391C17.6699 3.86686 17.9758 3.73483 18.1422 3.52042C18.6964 2.80626 19.6728 2.37992 20.7542 2.37992C21.8355 2.37992 22.8119 2.80626 23.366 3.52042C23.5325 3.73483 23.8384 3.86686 24.1692 3.86686H27.6928C28.2736 3.86686 28.7462 4.22124 28.7462 4.65693V7.62893L28.746 7.63066V7.6316C28.7454 8.06664 28.2731 8.42055 27.6928 8.42055H13.8153C13.2354 8.42055 12.7636 8.06711 12.7622 7.6324L12.7623 7.63066L12.7622 7.627V4.65693C12.7622 4.22124 13.2348 3.86686 13.8155 3.86686ZM39.6499 41.0862C39.6499 41.9317 38.7326 42.6196 37.6053 42.6196H3.90298C2.77569 42.6196 1.85842 41.9317 1.85842 41.0862V6.88717C1.85842 6.04164 2.77569 5.35394 3.90298 5.35394H10.9036V6.93379H4.89427C4.3808 6.93379 3.96487 7.24569 3.96487 7.63066V40.3429C3.96487 40.7279 4.3808 41.0398 4.89427 41.0398H36.6141C37.1276 41.0398 37.5434 40.7279 37.5434 40.3429V7.63066C37.5434 7.24569 37.1276 6.93379 36.6141 6.93379H30.6048V5.35394H37.6053C38.7326 5.35394 39.6499 6.04164 39.6499 6.88717V41.0862ZM20.7542 6.84074C21.2675 6.84074 21.6834 6.5287 21.6834 6.14387V4.65693C21.6834 4.27181 21.2675 3.95973 20.7542 3.95973C20.2408 3.95973 19.8249 4.27181 19.8249 4.65693V6.14387C19.8249 6.5287 20.2408 6.84074 20.7542 6.84074ZM27.6928 16.5057H21.7454C21.2321 16.5057 20.816 16.1936 20.816 15.8089C20.816 15.4237 21.2321 15.1117 21.7454 15.1117H27.6928C28.2062 15.1117 28.6222 15.4237 28.6222 15.8089C28.6222 16.1936 28.2062 16.5057 27.6928 16.5057ZM21.7454 19.4796H31.6579C32.1712 19.4796 32.5872 19.1677 32.5872 18.7825C32.5872 18.3974 32.1712 18.0855 31.6579 18.0855H21.7454C21.2321 18.0855 20.816 18.3974 20.816 18.7825C20.816 19.1677 21.2321 19.4796 21.7454 19.4796ZM12.8242 19.4796C12.5865 19.4796 12.3486 19.4114 12.167 19.2754L9.1934 17.045C8.83051 16.7729 8.83051 16.3315 9.1934 16.0592C9.5563 15.7873 10.1445 15.7873 10.5076 16.0592L12.8242 17.7969L17.1234 14.5725C17.4863 14.3003 18.0747 14.3003 18.4377 14.5725C18.8006 14.8446 18.8006 15.286 18.4377 15.5581L13.4814 19.2754C13.2999 19.4114 13.0619 19.4796 12.8242 19.4796ZM21.7454 23.9403H27.6928C28.2062 23.9403 28.6222 23.6283 28.6222 23.2432C28.6222 22.8581 28.2062 22.5462 27.6928 22.5462H21.7454C21.2321 22.5462 20.816 22.8581 20.816 23.2432C20.816 23.6283 21.2321 23.9403 21.7454 23.9403ZM31.6579 26.9142H21.7454C21.2321 26.9142 20.816 26.6021 20.816 26.217C20.816 25.8321 21.2321 25.5201 21.7454 25.5201H31.6579C32.1712 25.5201 32.5872 25.8321 32.5872 26.217C32.5872 26.6021 32.1712 26.9142 31.6579 26.9142ZM12.167 26.71C12.3486 26.846 12.5865 26.9142 12.8242 26.9142C13.0619 26.9142 13.2999 26.846 13.4814 26.71L18.4377 22.9928C18.8006 22.7203 18.8006 22.2792 18.4377 22.007C18.0747 21.7349 17.4863 21.7349 17.1234 22.007L12.8242 25.2315L10.5076 23.494C10.1445 23.2218 9.5563 23.2218 9.1934 23.494C8.83051 23.7662 8.83051 24.2075 9.1934 24.4797L12.167 26.71ZM27.6928 31.3748H21.7454C21.2321 31.3748 20.816 31.0629 20.816 30.6779C20.816 30.2928 21.2321 29.9809 21.7454 29.9809H27.6928C28.2062 29.9809 28.6222 30.2928 28.6222 30.6779C28.6222 31.0629 28.2062 31.3748 27.6928 31.3748ZM21.7454 34.3487H31.6579C32.1712 34.3487 32.5872 34.0368 32.5872 33.6516C32.5872 33.2665 32.1712 32.9546 31.6579 32.9546H21.7454C21.2321 32.9546 20.816 33.2665 20.816 33.6516C20.816 34.0368 21.2321 34.3487 21.7454 34.3487ZM12.8242 34.3487C12.5865 34.3487 12.3486 34.2807 12.167 34.1447L9.1934 31.9142C8.83051 31.642 8.83051 31.2008 9.1934 30.9285C9.5563 30.6564 10.1445 30.6564 10.5076 30.9285L12.8242 32.666L17.1234 29.4416C17.4863 29.1694 18.0747 29.1694 18.4377 29.4416C18.8006 29.7138 18.8006 30.1549 18.4377 30.4272L13.4814 34.1447C13.2999 34.2807 13.0619 34.3487 12.8242 34.3487Z" fill="#F48665"/>
</svg>
