<svg width="76" height="36" viewBox="0 0 76 36" fill="none" xmlns="http://www.w3.org/2000/svg">
<path fill-rule="evenodd" clip-rule="evenodd" d="M68.158 9.45268L70.1101 15.2887C73.0941 15.6284 75.3877 17.5586 75.3875 19.8819V29.2917C75.3875 29.779 74.8589 30.1738 74.2071 30.1738H70.3488C70.349 30.1827 70.3494 30.1914 70.3499 30.2002L70.3505 30.2115C70.3508 30.2185 70.351 30.2255 70.351 30.2326C70.351 33.3135 66.9973 35.8197 62.8752 35.8197C58.7533 35.8197 55.3995 33.3135 55.3995 30.2326C55.3995 30.2128 55.4013 30.1935 55.4016 30.1738H28.7996C28.7997 30.1826 28.8001 30.1913 28.8005 30.2V30.2V30.2L28.8005 30.2001C28.801 30.2109 28.8016 30.2217 28.8016 30.2326C28.8016 33.3135 25.4478 35.8197 21.3258 35.8197C17.2039 35.8197 13.8502 33.3135 13.8502 30.2326C13.8502 30.2216 13.8507 30.2108 13.8512 30.2V30.2V30.2C13.8516 30.1913 13.8521 30.1826 13.8522 30.1738H7.47613C6.13088 30.1738 5.03669 29.356 5.03669 28.3506V26.4099H1.18069C0.528706 26.4099 0.000244141 26.0149 0.000244141 25.5277C0.000244141 25.0404 0.528866 24.6454 1.18069 24.6454H12.5123C13.1642 24.6454 13.6927 25.0404 13.6927 25.5277C13.6927 26.0149 13.1642 26.4099 12.5123 26.4099H7.39726V28.3506C7.39726 28.3832 7.43252 28.4095 7.47597 28.4095H14.2609C15.2747 26.2214 18.0579 24.6454 21.3258 24.6454C24.5939 24.6454 27.377 26.2214 28.3908 28.4095H52.8811V21.7638C52.8811 21.2766 53.4097 20.8816 54.0615 20.8816C54.7135 20.8816 55.242 21.2767 55.242 21.7638V28.4097H55.8103C56.8241 26.2217 59.6072 24.6457 62.8752 24.6457C66.1433 24.6457 68.9262 26.2217 69.9401 28.4097H73.0266V24.5281H71.6888C69.6494 24.5281 67.9902 23.2883 67.9902 21.7639V19.882C67.9902 19.3947 68.5189 18.9999 69.1707 18.9999H72.8412C72.3413 17.8416 70.8865 17.0012 69.173 17.0002L69.1698 17.0004L69.1667 17.0002H55.2423V18.0001C55.2423 18.4875 54.7137 18.8823 54.0619 18.8823C53.4099 18.8823 52.8814 18.4873 52.8814 18.0001V2.00309C52.8814 1.9706 52.8462 1.94426 52.8028 1.94426H7.47597C7.43252 1.94426 7.39726 1.9706 7.39726 2.00309V18C7.39726 18.4873 6.8688 18.8821 6.21682 18.8821C5.56483 18.8821 5.03653 18.4872 5.03653 18V2.00309C5.03653 0.997608 6.13072 0.17981 7.47597 0.17981H52.803C54.1481 0.17981 55.2425 0.997608 55.2425 2.00309V3.94394H64.1346C66.8681 3.94394 69.0923 5.60617 69.0923 7.64909V8.5902C69.0923 9.01413 68.6917 9.36791 68.158 9.45268ZM64.1346 5.70839H55.2425V7.70788H66.7315V7.64909C66.7315 6.57897 65.5665 5.70839 64.1346 5.70839ZM55.2425 9.47218V15.2358H67.6591L65.7311 9.47218H55.2425ZM16.2109 30.2329C16.2109 32.3408 18.5055 34.0557 21.3258 34.0557C24.1463 34.0557 26.4408 32.3408 26.4408 30.2329C26.4408 28.1249 24.1463 26.41 21.3258 26.41C18.5055 26.41 16.2109 28.1249 16.2109 30.2329ZM57.7605 30.2329C57.7605 32.3408 60.0551 34.0557 62.8755 34.0557C65.696 34.0557 67.9905 32.3408 67.9905 30.2329C67.9905 28.1249 65.696 26.41 62.8755 26.41C60.0551 26.41 57.7605 28.1249 57.7605 30.2329ZM71.689 22.7637H73.0268V20.764H70.3512V21.7638C70.3512 22.3152 70.9514 22.7637 71.689 22.7637ZM18.8863 30.2329C18.8863 29.2277 19.9807 28.4097 21.3258 28.4097C22.6711 28.4097 23.7654 29.2277 23.7654 30.2329C23.7654 31.2381 22.6711 32.056 21.3258 32.056C19.9807 32.056 18.8863 31.2381 18.8863 30.2329ZM62.8755 28.4097C61.5304 28.4097 60.4361 29.2277 60.4361 30.2329C60.4361 31.2381 61.5304 32.056 62.8755 32.056C64.2208 32.056 65.315 31.2381 65.315 30.2329C65.315 29.2277 64.2208 28.4097 62.8755 28.4097ZM31.3985 24.6459H49.0256C49.6776 24.6459 50.206 25.0407 50.206 25.5281C50.206 26.0152 49.6774 26.4102 49.0256 26.4102H31.3985C30.7466 26.4102 30.218 26.0152 30.218 25.5281C30.218 25.0407 30.7468 24.6459 31.3985 24.6459ZM18.8078 20.8816H3.69875C3.04693 20.8816 2.51831 21.2767 2.51831 21.7639C2.51831 22.2513 3.04677 22.6462 3.69875 22.6462H18.8078C19.4595 22.6462 19.9882 22.2513 19.9882 21.7639C19.9882 21.2767 19.4595 20.8816 18.8078 20.8816ZM39.3775 8.90716C39.8385 8.56261 40.5859 8.56261 41.0468 8.90716C41.5077 9.2517 41.5077 9.81023 41.0466 10.1548L29.715 18.6236C29.4846 18.7959 29.1824 18.882 28.8804 18.882C28.5784 18.882 28.2763 18.7959 28.0457 18.6236L21.7505 13.9187C21.2894 13.5742 21.2894 13.0157 21.7505 12.6711C22.2112 12.3265 22.9586 12.3265 23.4197 12.6711L28.8804 16.7524L39.3775 8.90716Z" fill="#71D875"/>
</svg>
