<?xml version="1.0" standalone="no"?>
<!DOCTYPE svg PUBLIC "-//W3C//DTD SVG 20010904//EN"
 "http://www.w3.org/TR/2001/REC-SVG-20010904/DTD/svg10.dtd">
<svg version="1.0" xmlns="http://www.w3.org/2000/svg"
 width="385.000000pt" height="385.000000pt" viewBox="0 0 385.000000 385.000000"
 preserveAspectRatio="xMidYMid meet">
<metadata>
Created by potrace 1.14, written by Peter Selinger 2001-2017
</metadata>
<g transform="translate(0.000000,385.000000) scale(0.100000,-0.100000)"
fill="#000000" stroke="none">
<path d="M1550 3365 l0 -45 -95 0 -95 0 0 -45 0 -44 -87 -3 -88 -3 -3 -42 -3
-43 -45 0 -44 0 0 -44 0 -45 -47 -3 -48 -3 -3 -42 c-3 -42 -3 -42 -45 -45
l-42 -3 -3 -47 -3 -48 -45 0 -44 0 0 -45 0 -45 -39 0 -39 0 -7 -89 -7 -90 -42
-3 -41 -3 -3 -137 -3 -138 -44 0 -45 0 0 -320 0 -320 45 0 45 0 0 -140 0 -140
45 0 45 0 0 -90 0 -90 45 0 45 0 0 -45 0 -45 44 0 44 0 7 -89 7 -89 83 -7 84
-7 3 -41 3 -42 47 -3 47 -3 3 -42 3 -42 88 -3 87 -3 0 -44 0 -45 95 0 95 0 0
-45 0 -45 410 0 410 0 0 45 0 44 93 3 92 3 3 41 3 42 90 7 89 7 0 39 0 39 45
0 45 0 0 44 0 45 48 3 47 3 3 42 c3 42 3 42 45 45 l42 3 3 48 3 47 45 0 44 0
0 45 0 45 39 0 39 0 7 95 7 95 44 0 44 0 0 135 0 135 45 0 45 0 0 230 0 230
-45 0 -45 0 0 45 0 45 -45 0 -45 0 0 45 0 45 -347 0 c-192 0 -378 3 -415 7
l-68 6 0 38 0 39 -224 0 -225 0 -3 -42 -3 -43 -92 -3 -93 -3 0 -44 0 -45 -44
0 -43 0 -5 -112 c-3 -62 -3 -166 0 -230 l5 -118 43 0 44 0 0 -45 0 -45 90 0
90 0 0 -45 0 -45 235 0 235 0 0 45 0 45 39 0 39 0 7 -85 c4 -46 4 -89 0 -95
-3 -5 -26 -10 -51 -10 l-44 0 0 -45 0 -45 -90 0 -90 0 0 -45 0 -45 -227 2
-228 3 -3 41 -3 42 -89 7 -89 7 -3 42 c-3 41 -3 41 -45 44 -42 3 -42 3 -45 45
-3 42 -3 42 -44 45 l-42 3 -7 89 -7 89 -42 3 -41 3 -3 180 c-2 99 0 222 3 273
l7 92 39 0 39 0 0 45 0 45 44 0 45 0 3 48 3 47 48 3 47 3 0 45 0 44 90 0 90 0
0 45 0 45 163 0 c89 0 192 -3 230 -7 l67 -6 0 -38 0 -38 93 -3 92 -3 3 -42 3
-43 135 0 134 0 0 39 0 39 90 7 90 7 0 89 0 89 45 0 45 0 0 135 0 135 -45 0
-45 0 0 50 0 50 -45 0 -45 0 0 45 0 45 -90 0 -90 0 0 45 0 45 -95 0 -95 0 0
45 0 45 -410 0 -410 0 0 -45z"/>
</g>
</svg>
